<svg xmlns="http://www.w3.org/2000/svg" width="230" viewBox="0 0 230.9 39.3">
  <path
    d="M19.7 0A19.6 19.6 0 004 7.7h31.2A19.6 19.6 0 0019.7 0M19.7 39.3a19.6 19.6 0 0015.6-7.7H4a19.6 19.6 0 0015.7 7.7M18 12.8L12 10.5H2A19.6 19.6 0 000 18.3h39.3a19.5 19.5 0 00-1.1-5.5zM18.2 23.3L12 21H0a19.6 19.6 0 002.2 7.8h35a19.6 19.6 0 001.9-5.5z"
    fill="#4e4e52" />
  <path
    d="M228 28.8h.5a.4.4 0 00.4-.4c0-.3-.2-.3-.4-.3h-.4zm-.4-1.2h.9c.3 0 1 0 1 .8a.6.6 0 01-.6.6c.4 0 .4.3.5.6a2.6 2.6 0 00.1.8h-.6v-1l-.3-.1h-.5v1h-.5zm-1.2 1.4a2 2 0 102-2 2 2 0 00-2 2m4.5 0a2.4 2.4 0 11-2.4-2.4 2.4 2.4 0 012.4 2.4M68.3 7.9h9l10.7 17h.1v-17h6v23.5h-9l-10.7-17v17h-6zM105.5 7.9h20.3v4.8h-13.4v4.4H125v4.8h-12.6v4.7H126v4.8h-20.6zM143.3 12.7h-9V7.9h25v4.8h-9.1v18.7h-6.9zM183 15.6c-.3-2.6-2.4-3.5-5-3.5-4.5 0-6.7 3.1-6.7 7.4 0 4.2 1.8 7.7 6.5 7.7 2.6 0 5-.9 5.2-3.8h7.2c-.3 7-6 8.6-13.1 8.6-7 0-12.8-3.5-12.8-12.3 0-8.9 5.5-12.4 13.9-12.4 6 0 11.8 2 11.9 8.3zM211.4 27.2c5.2 0 6.9-3.4 6.9-7.6s-1.7-7.5-7-7.5-6.9 3.4-6.9 7.5 1.7 7.6 7 7.6m0-20c9.8 0 14 5.3 14 12.4s-4.2 12.4-14 12.4-14-5.2-14-12.4 4.1-12.3 14-12.3M50.7 7.9H57v23.5h-6.3z"
    fill="#9c2e33" />
</svg>