<?xml version="1.0" encoding="UTF-8" standalone="no"?>
<!-- Created with Inkscape (http://www.inkscape.org/) -->

<svg
   width="108.80801mm"
   height="29.366009mm"
   viewBox="0 0 108.80801 29.366009"
   version="1.1"
   id="svg1273"
   xml:space="preserve"
   inkscape:version="1.2.2 (b0a8486541, 2022-12-01)"
   sodipodi:docname="recon-two-line-logo.svg"
   xmlns:inkscape="http://www.inkscape.org/namespaces/inkscape"
   xmlns:sodipodi="http://sodipodi.sourceforge.net/DTD/sodipodi-0.dtd"
   xmlns="http://www.w3.org/2000/svg"
   xmlns:svg="http://www.w3.org/2000/svg"><sodipodi:namedview
     id="namedview1275"
     pagecolor="#ffffff"
     bordercolor="#000000"
     borderopacity="0.25"
     inkscape:showpageshadow="2"
     inkscape:pageopacity="0.0"
     inkscape:pagecheckerboard="0"
     inkscape:deskcolor="#d1d1d1"
     inkscape:document-units="mm"
     showgrid="false"
     inkscape:zoom="2.025849"
     inkscape:cx="250.01863"
     inkscape:cy="129.82211"
     inkscape:window-width="1920"
     inkscape:window-height="1007"
     inkscape:window-x="0"
     inkscape:window-y="73"
     inkscape:window-maximized="1"
     inkscape:current-layer="layer1" /><defs
     id="defs1270" /><g
     inkscape:label="Layer 1"
     inkscape:groupmode="layer"
     id="layer1"
     transform="translate(-0.99999867,-1.2649966)"><g
       id="g1794"
       transform="matrix(1.672537,0,0,1.672537,-64.318401,-172.92939)"><g
         style="fill:#0045ab;fill-opacity:1"
         id="g364"
         transform="matrix(0.66229068,0,0,0.66229068,37.948806,96.67129)"><g
           id="use362"
           transform="translate(0,24.04969)"><path
             style="stroke:none"
             d="m 9.726562,0 h 2.433594 L 9.3125,-4.246094 c 1.6875,-0.65625 2.628906,-2.089844 2.628906,-4.121094 0,-2.757812 -1.867187,-4.335937 -5.117187,-4.335937 H 1.667969 V 0 H 3.8125 v -3.828125 h 3.011719 c 0.199219,0 0.398437,0 0.582031,-0.019531 z M 3.8125,-5.753906 v -5.027344 h 3.011719 c 1.960937,0 3.085937,0.796875 3.085937,2.46875 0,1.722656 -1.125,2.558594 -3.085937,2.558594 z m 0,0"
             id="path1686" /></g></g><g
         style="fill:#0045ab;fill-opacity:1"
         id="g368"
         transform="matrix(0.66229068,0,0,0.66229068,37.948806,96.67129)"><g
           id="use366"
           transform="translate(21.829334,24.04969)"><path
             style="stroke:none"
             d="m 10.746094,-10.78125 v -1.921875 H 1.667969 V 0 h 9.292969 V -1.925781 H 3.8125 v -3.5 h 6.207031 V -7.351562 H 3.8125 v -3.429688 z m 0,0"
             id="path1690" /></g></g><g
         style="fill:#0045ab;fill-opacity:1"
         id="g372"
         transform="matrix(0.66229068,0,0,0.66229068,37.948806,96.67129)"><g
           id="use370"
           transform="translate(42.443096,24.04969)"><path
             style="stroke:none"
             d="m 7.296875,-12.757812 c -3.757813,0 -6.679687,2.773437 -6.679687,6.386718 0,3.648438 2.886718,6.4609378 6.605468,6.4609378 1.796875,0 3.632813,-0.8164058 4.917969,-2.0859378 l -1.269531,-1.417968 c -0.960938,0.925781 -2.269532,1.507812 -3.539063,1.507812 -2.539062,0 -4.535156,-1.976562 -4.535156,-4.484375 0,-2.503906 1.996094,-4.464844 4.535156,-4.464844 1.289063,0 2.613281,0.617188 3.539063,1.617188 l 1.253906,-1.5625 c -1.234375,-1.214844 -3.03125,-1.957031 -4.828125,-1.957031 z m 0,0"
             id="path1694" /></g></g><g
         style="fill:#0045ab;fill-opacity:1"
         id="g376"
         transform="matrix(0.66229068,0,0,0.66229068,37.948806,96.67129)"><g
           id="use374"
           transform="translate(63.800716,24.04969)"><path
             style="stroke:none"
             d="m 7.351562,-12.757812 c -3.792968,0 -6.734374,2.757812 -6.734374,6.40625 0,3.628906 2.941406,6.4414058 6.734374,6.4414058 3.792969,0 6.734376,-2.8124998 6.734376,-6.4414058 0,-3.632813 -2.941407,-6.40625 -6.734376,-6.40625 z m 0.015626,1.921874 c 2.488281,0 4.519531,1.960938 4.519531,4.484376 0,2.523437 -2.03125,4.519531 -4.519531,4.519531 -2.484376,0 -4.570313,-1.996094 -4.570313,-4.519531 0,-2.523438 2.066406,-4.484376 4.570313,-4.484376 z m 0,0"
             id="path1698" /></g></g><g
         style="fill:#0045ab;fill-opacity:1"
         id="g380"
         transform="matrix(0.66229068,0,0,0.66229068,37.948806,96.67129)"><g
           id="use378"
           transform="translate(87.208488,24.04969)"><path
             style="stroke:none"
             d="m 12.6875,0 v -12.703125 h -2.105469 v 9.128906 L 3.773438,-12.703125 H 1.667969 V 0 H 3.8125 V -9.109375 L 10.582031,0 Z m 0,0"
             id="path1670" /></g></g></g><g
       id="g1777"
       transform="matrix(1.3432414,0,0,1.3432414,-50.176597,-148.7478)"><g
         style="fill:#a6a6a6;fill-opacity:1"
         id="g384"
         transform="matrix(0.66229068,0,0,0.66229068,-32.185369,117.69848)"><g
           id="use382"
           transform="translate(105.21739,23.921926)"><path
             style="stroke:none"
             d="m 7.421875,-12.6875 c -3.574219,0 -6.515625,2.851562 -6.515625,6.335938 C 0.90625,-2.867188 3.847656,0 7.421875,0 c 1.671875,0 3.214844,-0.636719 4.375,-1.652344 l -0.253906,-0.234375 c -1.089844,0.960938 -2.539063,1.542969 -4.121094,1.542969 -3.390625,0 -6.167969,-2.707031 -6.167969,-6.007812 0,-3.304688 2.777344,-5.992188 6.167969,-5.992188 1.582031,0 3.03125,0.5625 4.121094,1.527344 l 0.238281,-0.238282 C 10.617188,-12.070312 9.09375,-12.6875 7.421875,-12.6875 Z m 0,0"
             id="path1666" /></g></g><g
         style="fill:#a6a6a6;fill-opacity:1"
         id="g388"
         transform="matrix(0.66229068,0,0,0.66229068,-32.185369,117.69848)"><g
           id="use386"
           transform="translate(118.73416,23.921926)"><path
             style="stroke:none"
             d="m 7.421875,-12.6875 c -3.574219,0 -6.515625,2.851562 -6.515625,6.335938 C 0.90625,-2.867188 3.847656,0 7.421875,0 11,0 13.9375,-2.867188 13.9375,-6.351562 13.9375,-9.835938 11,-12.6875 7.421875,-12.6875 Z m 0,0.363281 c 3.378906,0 6.15625,2.6875 6.15625,5.972657 0,3.285156 -2.777344,5.988281 -6.15625,5.988281 -3.375,0 -6.152344,-2.703125 -6.152344,-5.988281 0,-3.285157 2.777344,-5.972657 6.152344,-5.972657 z m 0,0"
             id="path1662" /></g></g><g
         style="fill:#a6a6a6;fill-opacity:1"
         id="g392"
         transform="matrix(0.66229068,0,0,0.66229068,-32.185369,117.69848)"><g
           id="use390"
           transform="translate(134.30109,23.921926)"><path
             style="stroke:none"
             d="M 12.179688,0 V -12.6875 H 11.816406 V -0.363281 L 2.867188,-12.6875 H 2.324219 V 0 H 2.6875 V -12.324219 L 11.632812,0 Z m 0,0"
             id="path1678" /></g></g><g
         style="fill:#a6a6a6;fill-opacity:1"
         id="g396"
         transform="matrix(0.66229068,0,0,0.66229068,-32.185369,117.69848)"><g
           id="use394"
           transform="translate(149.52328,23.921926)"><path
             style="stroke:none"
             d="m 5.480469,-12.6875 c -2.449219,0 -4.046875,1.109375 -4.046875,2.8125 0,4.613281 7.625,2.433594 7.585937,6.789062 0,1.652344 -1.542969,2.722657 -3.9375,2.722657 C 3.558594,-0.363281 1.960938,-1.015625 1,-2.03125 L 0.746094,-1.777344 C 1.796875,-0.707031 3.484375,0 5.082031,0 7.695312,0 9.382812,-1.214844 9.382812,-3.085938 9.417969,-7.804688 1.796875,-5.625 1.796875,-9.875 c 0,-1.488281 1.453125,-2.449219 3.683594,-2.449219 1.125,0 2.378906,0.328125 3.195312,0.851563 l 0.179688,-0.289063 c -0.871094,-0.5625 -2.195313,-0.925781 -3.375,-0.925781 z m 0,0"
             id="path1658" /></g></g><g
         style="fill:#a6a6a6;fill-opacity:1"
         id="g400"
         transform="matrix(0.66229068,0,0,0.66229068,-32.185369,117.69848)"><g
           id="use398"
           transform="translate(161.00803,23.921926)"><path
             style="stroke:none"
             d="M 12.050781,-12.6875 H 11.6875 v 7.53125 c 0,3.050781 -1.703125,4.792969 -4.664062,4.792969 -2.957032,0 -4.664063,-1.742188 -4.664063,-4.792969 V -12.6875 H 1.996094 v 7.53125 C 1.996094,-1.871094 3.828125,0 7.023438,0 c 3.195312,0 5.027343,-1.871094 5.027343,-5.15625 z m 0,0"
             id="path1654" /></g></g><g
         style="fill:#a6a6a6;fill-opacity:1"
         id="g404"
         transform="matrix(0.66229068,0,0,0.66229068,-32.185369,117.69848)"><g
           id="use402"
           transform="translate(175.77666,23.921926)"><path
             style="stroke:none"
             d="M 2.6875,-0.363281 V -12.6875 H 2.324219 V 0 h 6.042969 v -0.363281 z m 0,0"
             id="path1642" /></g></g><g
         style="fill:#a6a6a6;fill-opacity:1"
         id="g408"
         transform="matrix(0.66229068,0,0,0.66229068,-32.185369,117.69848)"><g
           id="use406"
           transform="translate(185.41084,23.921926)"><path
             style="stroke:none"
             d="M 9.3125,-12.324219 V -12.6875 H 0.234375 v 0.363281 H 4.59375 V 0 h 0.359375 v -12.324219 z m 0,0"
             id="path1650" /></g></g><g
         style="fill:#a6a6a6;fill-opacity:1"
         id="g412"
         transform="matrix(0.66229068,0,0,0.66229068,-32.185369,117.69848)"><g
           id="use410"
           transform="translate(195.68002,23.921926)"><path
             style="stroke:none"
             d="M 2.6875,0 V -12.6875 H 2.324219 V 0 Z m 0,0"
             id="path1674" /></g></g><g
         style="fill:#a6a6a6;fill-opacity:1"
         id="g416"
         transform="matrix(0.66229068,0,0,0.66229068,-32.185369,117.69848)"><g
           id="use414"
           transform="translate(201.41348,23.921926)"><path
             style="stroke:none"
             d="M 12.179688,0 V -12.6875 H 11.816406 V -0.363281 L 2.867188,-12.6875 H 2.324219 V 0 H 2.6875 V -12.324219 L 11.632812,0 Z m 0,0"
             id="path1682" /></g></g><g
         style="fill:#a6a6a6;fill-opacity:1"
         id="g420"
         transform="matrix(0.66229068,0,0,0.66229068,-32.185369,117.69848)"><g
           id="use418"
           transform="translate(216.63568,23.921926)"><path
             style="stroke:none"
             d="m 11.796875,-6.226562 h -0.363281 v 4.429687 c -1.070313,0.90625 -2.484375,1.453125 -4.011719,1.453125 -3.390625,0 -6.167969,-2.707031 -6.167969,-6.007812 0,-3.304688 2.777344,-5.992188 6.167969,-5.992188 1.582031,0 3.03125,0.5625 4.121094,1.527344 l 0.238281,-0.238282 C 10.617188,-12.070312 9.09375,-12.6875 7.421875,-12.6875 3.847656,-12.6875 0.90625,-9.835938 0.90625,-6.351562 0.90625,-2.867188 3.847656,0 7.421875,0 c 1.671875,0 3.214844,-0.636719 4.375,-1.652344 z m 0,0"
             id="path1646" /></g></g></g></g></svg>
