<?xml version="1.0" encoding="utf-8"?>
<!-- Generator: Adobe Illustrator 15.1.0, SVG Export Plug-In . SVG Version: 6.00 Build 0)  -->
<!DOCTYPE svg PUBLIC "-//W3C//DTD SVG 1.1//EN" "http://www.w3.org/Graphics/SVG/1.1/DTD/svg11.dtd">
<svg version="1.1"
	 id="svg3857" xmlns:svg="http://www.w3.org/2000/svg" sodipodi:docname="Wikipedia-logo.svg" inkscape:version="0.47 r22583" xmlns:cc="http://creativecommons.org/ns#" xmlns:dc="http://purl.org/dc/elements/1.1/" xmlns:sodipodi="http://sodipodi.sourceforge.net/DTD/sodipodi-0.dtd" xmlns:rdf="http://www.w3.org/1999/02/22-rdf-syntax-ns#" xmlns:inkscape="http://www.inkscape.org/namespaces/inkscape"
	 xmlns="http://www.w3.org/2000/svg" xmlns:xlink="http://www.w3.org/1999/xlink" x="0px" y="0px" width="126px" height="25.667px"
	 viewBox="4.333 110.667 126 25.667" enable-background="new 4.333 110.667 126 25.667" xml:space="preserve">
<defs>
	
	
		<inkscape:perspective  id="perspective4854" inkscape:vp_y="0 : 1000 : 0" inkscape:vp_z="135 : 77.5 : 1" sodipodi:type="inkscape:persp3d" inkscape:persp3d-origin="67.5 : 51.666667 : 1" inkscape:vp_x="0 : 77.5 : 1">
		</inkscape:perspective>
	
		<inkscape:perspective  id="perspective10537" inkscape:vp_y="0 : 1000 : 0" inkscape:vp_z="1 : 0.5 : 1" sodipodi:type="inkscape:persp3d" inkscape:persp3d-origin="0.5 : 0.33333333 : 1" inkscape:vp_x="0 : 0.5 : 1">
		</inkscape:perspective>
</defs>
<sodipodi:namedview  id="namedview4848" borderopacity="1" pagecolor="#ffffff" showgrid="false" inkscape:window-height="730" gridtolerance="10" inkscape:window-x="32" objecttolerance="10" inkscape:window-y="24" inkscape:window-maximized="0" bordercolor="#666666" inkscape:current-layer="svg3857" inkscape:pageopacity="0" inkscape:pageshadow="2" inkscape:window-width="1198" guidetolerance="10" inkscape:cy="145.31128" inkscape:zoom="5.6568543" inkscape:cx="92.577797" showguides="true" inkscape:guide-bbox="true">
	<sodipodi:guide  id="globe_top" position="0,140" orientation="0,1"></sodipodi:guide>
	<sodipodi:guide  id="globe_left" position="16,0" orientation="1,0"></sodipodi:guide>
	<sodipodi:guide  id="globe_right" position="119,0" orientation="1,0"></sodipodi:guide>
	<sodipodi:guide  id="globe_bottom" position="0,47" orientation="0,1"></sodipodi:guide>
	<sodipodi:guide  id="wordmark_top" position="8,40" orientation="0,1"></sodipodi:guide>
	<sodipodi:guide  id="wordmark_bottom" position="8,22.5" orientation="0,1"></sodipodi:guide>
	<sodipodi:guide  id="subtitle_top" position="0,17" orientation="0,1"></sodipodi:guide>
	<sodipodi:guide  id="subtitle_bottom" position="0,8" orientation="0,1"></sodipodi:guide>
	<sodipodi:guide  id="wordmark_left" position="8,40" orientation="1,0"></sodipodi:guide>
	<sodipodi:guide  id="wordmark_right" position="127,40" orientation="1,0"></sodipodi:guide>
</sodipodi:namedview>
<g id="Wikipedia">
	<path id="path3898" fill="#FFFFFF" d="M18.651,118.893c0,0-0.366-0.746-0.491-0.994c-0.834-1.651-0.816-1.739-1.659-1.852
		c-0.236-0.031-0.358-0.061-0.358-0.178v-0.523l0.071-0.051c1.522-0.002,4.912-0.002,4.912-0.002l0.13,0.043v0.521
		c0,0.119-0.085,0.18-0.258,0.18l-0.356,0.051c-0.899,0.07-0.753,0.438-0.155,1.629l5.678,11.615l0.193,0.053l5.04-11.961
		c0.176-0.482,0.148-0.824-0.077-1.025c-0.226-0.194-0.385-0.312-0.969-0.336l-0.473-0.022c-0.059,0-0.113-0.021-0.166-0.062
		c-0.052-0.037-0.079-0.086-0.079-0.145v-0.498l0.072-0.051c1.42,0,5.693,0,5.693,0l0.059,0.051v0.498
		c0,0.135-0.077,0.203-0.229,0.203c-0.746,0.033-1.299,0.195-1.657,0.484c-0.358,0.291-0.639,0.69-0.84,1.213
		c0,0-4.635,10.607-6.221,14.135c-0.607,1.156-1.204,1.05-1.729-0.033c-1.109-2.284-4.232-9.213-4.232-9.213L18.651,118.893z"/>
	<path id="path3900" fill="#FFFFFF" d="M27.748,115.287c0,0-3.203-0.01-4.629,0l-0.071,0.051v0.496c0,0.061,0.026,0.109,0.078,0.146
		c0.053,0.039,0.106,0.059,0.165,0.059l0.229,0.025c0.583,0.022,0.852,0.177,0.932,0.271c0.139,0.17,0.208,0.354-0.13,1.089
		l-5.979,11.929l-0.157-0.041c0,0-4.283-9.031-5.522-12.054c-0.129-0.312-0.188-0.545-0.188-0.688c0-0.307,0.277-0.473,0.831-0.495
		l0.646-0.027c0.171,0,0.258-0.065,0.258-0.203v-0.495l-0.059-0.052c0,0-5.13-0.006-6.189,0l-0.059,0.052v0.521
		c0,0.094,0.119,0.151,0.358,0.178c0.651,0.035,1.079,0.14,1.285,0.312c0.205,0.176,0.422,0.617,0.71,1.307
		c1.557,3.74,4.865,10.414,6.476,14.215c0.465,1.038,1.047,1.199,1.755-0.031c1.227-2.273,4.551-9.219,4.551-9.219l2.618-4.896
		c0.305-0.518,0.599-0.979,0.747-1.192c0.273-0.394,0.427-0.467,1.173-0.502c0.151,0,0.229-0.067,0.229-0.205v-0.496L27.748,115.287
		z"/>
	<path id="path3904" fill="#FFFFFF" d="M37.486,130.77c0,0.572,0.261,0.91,1.093,0.988l0.546,0.053c0.078,0,0.156,0.051,0.156,0.155
		v0.546l-0.026,0.053c0,0-1.977-0.053-2.782-0.053c-0.728,0-2.756,0.053-2.756,0.053l-0.052-0.053v-0.546
		c0-0.104,0.078-0.155,0.182-0.155l0.521-0.053c0.857-0.078,1.117-0.494,1.117-0.988v-8.658c0-0.569-0.312-0.729-1.117-0.805
		l-0.521-0.054c-0.104,0-0.182-0.024-0.182-0.104v-0.599l0.025-0.052c0,0,2.055,0.052,2.86,0.052c0.702,0,2.704-0.052,2.704-0.052
		l0.026,0.052v0.572c0,0.078-0.053,0.13-0.156,0.13l-0.546,0.053c-0.807,0.077-1.093,0.286-1.093,0.807V130.77z"/>
	<path id="path3906" fill="#FFFFFF" d="M45.16,130.77c0,0.572,0.338,0.858,1.092,0.988l0.286,0.053
		c0.078,0.025,0.155,0.051,0.155,0.155v0.546l-0.025,0.053c0,0-1.639-0.053-2.418-0.053c-0.729,0-2.86,0.053-2.86,0.053
		l-0.052-0.053v-0.546c0-0.104,0.078-0.155,0.182-0.155l0.521-0.053c0.779-0.078,1.118-0.494,1.118-0.988v-8.658
		c0-0.569-0.286-0.729-1.118-0.805l-0.521-0.054c-0.104,0-0.182-0.024-0.182-0.104v-0.599l0.026-0.052c0,0,2.132,0.052,2.938,0.052
		c0.729,0,2.366-0.052,2.366-0.052l0.025,0.052v0.572c0,0.078-0.052,0.104-0.155,0.13l-0.286,0.053
		c-0.807,0.155-1.092,0.286-1.092,0.807v3.928c0.857,0,1.352-0.439,2.496-1.664c1.039-1.146,1.846-2.104,1.846-2.602
		c0-0.209-0.234-0.44-0.754-0.521c-0.104-0.024-0.156-0.052-0.156-0.13v-0.6l0.026-0.024c0,0,2.105,0.052,2.859,0.052
		c0.676,0,1.82-0.052,1.82-0.052l0.078,0.024v0.6c0,0.078-0.078,0.13-0.208,0.13c-1.015,0.078-1.716,0.13-2.652,1.196l-2.236,2.572
		c-0.441,0.47-0.598,0.754-0.598,0.963c0,0.156,0.104,0.285,0.234,0.44l3.926,4.732c0.312,0.362,0.936,0.52,1.456,0.623l0.13,0.024
		c0.078,0.025,0.182,0.077,0.182,0.155v0.546l-0.077,0.026c0,0-1.379-0.026-2.106-0.026c-0.65,0-1.586,0.026-1.586,0.026
		l-0.026-0.026v-0.312c0-0.338-0.025-0.623-0.39-1.038l-2.886-3.589c-0.391-0.521-0.807-0.649-1.378-0.649V130.77L45.16,130.77z"/>
	<path id="path3908" fill="#FFFFFF" d="M59.177,130.77c0,0.572,0.26,0.91,1.092,0.988l0.546,0.053c0.078,0,0.156,0.051,0.156,0.155
		v0.546l-0.026,0.053c0,0-1.976-0.053-2.781-0.053c-0.729,0-2.756,0.053-2.756,0.053l-0.053-0.053v-0.546
		c0-0.104,0.078-0.155,0.183-0.155l0.52-0.053c0.858-0.078,1.118-0.494,1.118-0.988v-8.658c0-0.569-0.312-0.729-1.118-0.805
		l-0.52-0.054c-0.104,0-0.183-0.024-0.183-0.104v-0.599l0.026-0.052c0,0,2.054,0.052,2.86,0.052c0.701,0,2.703-0.052,2.703-0.052
		l0.026,0.052v0.572c0,0.078-0.052,0.13-0.156,0.13l-0.546,0.053c-0.806,0.077-1.092,0.286-1.092,0.807V130.77z"/>
	<path id="path3910" fill="#FFFFFF" d="M64.795,122.163c0-0.806-0.338-0.832-1.561-0.91c-0.155,0-0.182-0.077-0.182-0.13v-0.598
		l0.052-0.026c0.391,0,1.924,0.052,2.679,0.052c0.728,0,1.768-0.052,2.729-0.052c3.69,0,4.366,1.819,4.366,3.173
		c0,1.561-0.754,4.004-4.444,4.004c-0.649,0-1.17-0.053-1.639-0.26v3.482c0,0.57,0.312,0.703,1.145,0.832l0.521,0.078
		c0.104,0.024,0.184,0.053,0.184,0.154v0.546l-0.023,0.054c0,0-2.081-0.054-2.888-0.054c-0.728,0-2.678,0.054-2.678,0.054
		l-0.026-0.054v-0.546c0-0.104,0.053-0.13,0.156-0.154l0.546-0.078c0.807-0.104,1.066-0.338,1.066-0.832L64.795,122.163
		L64.795,122.163L64.795,122.163z M66.797,126.688c0.52,0.209,1.17,0.234,1.689,0.234c1.561,0,2.312-0.938,2.312-2.938
		c0-2.236-1.014-2.73-2.442-2.73c-1.249,0-1.561,0.234-1.561,0.91L66.797,126.688L66.797,126.688z"/>
	<path id="path3912" fill="#FFFFFF" d="M77.356,132.512c-0.78,0-2.573,0.053-2.573,0.053l-0.027-0.053v-0.572
		c0-0.051,0.027-0.129,0.156-0.129l0.601-0.053c0.807-0.078,1.041-0.598,1.041-1.117v-8.58c0-0.6-0.312-0.703-1.041-0.754
		l-0.601-0.054c-0.156-0.024-0.156-0.077-0.156-0.104v-0.599l0.027-0.052c0,0,2.027,0.052,2.807,0.052h3.822
		c0.78,0,2.627-0.052,2.627-0.052l0.055,0.052c0.023,1.118,0.205,2.134,0.39,3.121l-0.647,0.104c-0.285-0.963-0.779-2.34-2.443-2.34
		h-2.08c-0.494,0-0.754,0.182-0.754,0.623v3.771h1.949c0.729,0,0.91-0.312,1.015-0.832l0.155-0.546c0-0.078,0.053-0.131,0.156-0.131
		h0.439c0.055,0,0.055,0.027,0.055,0.078c-0.055,0.57-0.156,1.301-0.156,1.925c0,0.649,0.104,1.196,0.156,1.794l-0.055,0.053h-0.439
		c-0.129,0-0.185-0.053-0.185-0.131l-0.13-0.571c-0.104-0.521-0.338-0.807-1.018-0.807h-1.947v3.979
		c0,0.491,0.283,0.985,0.754,0.985h2.47c1.326,0,2.056-0.832,2.366-2.187l0.648,0.078l-0.521,2.989l-0.052,0.052
		c0,0-1.534-0.052-2.313-0.052L77.356,132.512L77.356,132.512L77.356,132.512z"/>
	<path id="path3914" fill="#FFFFFF" d="M87.135,131.811l0.598-0.053c0.781-0.078,1.041-0.312,1.041-1.117v-8.58
		c0-0.678-0.184-0.678-1.041-0.754l-0.57-0.054c-0.104,0-0.184-0.052-0.184-0.13v-0.572l0.025-0.052c0,0,2.289,0.052,2.758,0.052
		c0.492,0,2.756-0.052,3.432-0.052c4.342,0,6.475,2.704,6.475,6.162c0,4.551-3.225,5.901-6.108,5.901
		c-2.08,0-2.989-0.054-3.795-0.054c-0.781,0-2.759,0.054-2.759,0.054l-0.024-0.054v-0.546
		C86.979,131.889,87.031,131.811,87.135,131.811z M92.934,131.811c2.859,0,4.473-1.063,4.473-4.707c0-2.703-0.599-5.851-4.967-5.851
		c-1.014,0-1.664,0.156-1.664,0.808v8.58C90.775,131.367,90.957,131.811,92.934,131.811z"/>
	<path id="path3916" fill="#FFFFFF" d="M105.807,130.77c0,0.572,0.26,0.91,1.092,0.988l0.546,0.053c0.078,0,0.156,0.051,0.156,0.155
		v0.546l-0.026,0.053c0,0-1.976-0.053-2.781-0.053c-0.729,0-2.756,0.053-2.756,0.053l-0.053-0.053v-0.546
		c0-0.104,0.078-0.155,0.182-0.155l0.521-0.053c0.857-0.078,1.118-0.494,1.118-0.988v-8.658c0-0.569-0.313-0.729-1.118-0.805
		l-0.521-0.054c-0.104,0-0.182-0.024-0.182-0.104v-0.599l0.026-0.052c0,0,2.054,0.052,2.858,0.052c0.7,0,2.705-0.052,2.705-0.052
		l0.023,0.052v0.572c0,0.078-0.055,0.13-0.156,0.13l-0.546,0.053c-0.808,0.077-1.092,0.286-1.092,0.807L105.807,130.77
		L105.807,130.77L105.807,130.77z"/>
	<path id="path3918" fill="#FFFFFF" d="M113.816,131.758l0.754,0.053c0.104,0,0.208,0.078,0.208,0.207v0.494l-0.052,0.053
		c0,0-2.834-0.053-3.458-0.053c-0.677,0-2.341,0.053-2.341,0.053l-0.053-0.053v-0.494c0-0.129,0.078-0.207,0.209-0.207
		c1.145-0.078,1.793-0.287,2.521-1.951l5.771-13.521c0.285-0.676,0.494-0.937,0.887-0.937c0.361,0,0.492,0.261,0.699,0.781
		l5.33,14.092c0.365,1.015,0.887,1.404,1.926,1.508l0.285,0.025c0.131,0,0.262,0.076,0.262,0.209v0.491l-0.078,0.054
		c0,0-2.002-0.054-3.018-0.054c-0.91,0-3.459,0.054-3.459,0.054l-0.023-0.054v-0.491c0-0.133,0.052-0.209,0.186-0.209l0.728-0.054
		c0.987-0.077,1.353-0.391,1.092-1.116l-1.586-4.396h-5.41c-0.624,0-0.78,0.104-0.909,0.439l-1.509,3.771
		C112.517,131.107,112.854,131.68,113.816,131.758z M120.187,125.152l-2.522-6.941h-0.052l-2.6,6.604
		c-0.104,0.263,0.077,0.338,0.649,0.338H120.187L120.187,125.152z"/>
</g>
</svg>
